<mxfile host="app.diagrams.net" agent="Mozilla/5.0 (Windows NT 10.0; Win64; x64) AppleWebKit/537.36 (KHTML, like Gecko) Chrome/138.0.0.0 Safari/537.36" version="28.0.6">
  <diagram name="PÃ¡gina-1" id="5V5Lha0sutUM6fblqGhu">
    <mxGraphModel dx="1426" dy="743" grid="1" gridSize="10" guides="1" tooltips="1" connect="1" arrows="1" fold="1" page="1" pageScale="1" pageWidth="827" pageHeight="1169" math="0" shadow="0">
      <root>
        <mxCell id="0" />
        <mxCell id="1" parent="0" />
        <mxCell id="proi3J-WzatVridSsufi-8" style="edgeStyle=orthogonalEdgeStyle;rounded=0;orthogonalLoop=1;jettySize=auto;html=1;exitX=0.5;exitY=0.5;exitDx=0;exitDy=0;exitPerimeter=0;" parent="1" source="proi3J-WzatVridSsufi-1" target="proi3J-WzatVridSsufi-3" edge="1">
          <mxGeometry relative="1" as="geometry">
            <mxPoint x="300" y="360" as="targetPoint" />
            <Array as="points">
              <mxPoint x="285" y="360" />
              <mxPoint x="285" y="440" />
            </Array>
          </mxGeometry>
        </mxCell>
        <mxCell id="proi3J-WzatVridSsufi-9" style="edgeStyle=orthogonalEdgeStyle;rounded=0;orthogonalLoop=1;jettySize=auto;html=1;exitX=1;exitY=0.3333333333333333;exitDx=0;exitDy=0;exitPerimeter=0;entryX=0;entryY=0.25;entryDx=0;entryDy=0;" parent="1" source="proi3J-WzatVridSsufi-1" target="proi3J-WzatVridSsufi-3" edge="1">
          <mxGeometry relative="1" as="geometry" />
        </mxCell>
        <mxCell id="proi3J-WzatVridSsufi-1" value="Actor" style="shape=umlActor;verticalLabelPosition=bottom;verticalAlign=top;html=1;outlineConnect=0;" parent="1" vertex="1">
          <mxGeometry x="230" y="330" width="30" height="60" as="geometry" />
        </mxCell>
        <mxCell id="proi3J-WzatVridSsufi-6" style="edgeStyle=orthogonalEdgeStyle;rounded=0;orthogonalLoop=1;jettySize=auto;html=1;exitX=1;exitY=0.5;exitDx=0;exitDy=0;" parent="1" source="proi3J-WzatVridSsufi-3" edge="1">
          <mxGeometry relative="1" as="geometry">
            <mxPoint x="580" y="380" as="targetPoint" />
          </mxGeometry>
        </mxCell>
        <mxCell id="proi3J-WzatVridSsufi-3" value="" style="swimlane;startSize=0;" parent="1" vertex="1">
          <mxGeometry x="310" y="280" width="200" height="200" as="geometry" />
        </mxCell>
        <mxCell id="proi3J-WzatVridSsufi-10" value="" style="ellipse;whiteSpace=wrap;html=1;" parent="proi3J-WzatVridSsufi-3" vertex="1">
          <mxGeometry x="40" y="20" width="120" height="80" as="geometry" />
        </mxCell>
        <mxCell id="proi3J-WzatVridSsufi-11" value="" style="ellipse;whiteSpace=wrap;html=1;" parent="proi3J-WzatVridSsufi-3" vertex="1">
          <mxGeometry x="40" y="110" width="120" height="80" as="geometry" />
        </mxCell>
        <mxCell id="proi3J-WzatVridSsufi-4" value="Actor" style="shape=umlActor;verticalLabelPosition=bottom;verticalAlign=top;html=1;outlineConnect=0;" parent="1" vertex="1">
          <mxGeometry x="590" y="330" width="30" height="60" as="geometry" />
        </mxCell>
      </root>
    </mxGraphModel>
  </diagram>
</mxfile>
